<svg xmlns="http://www.w3.org/2000/svg" width="128" height="128" viewBox="0 0 102.55 102.55"><g id="auto"><g id="auto-bmw"><path d="m51.27,5.99c25.01,0,45.28,20.27,45.28,45.28s-20.27,45.28-45.28,45.28S5.99,76.28,5.99,51.27,26.27,5.99,51.27,5.99Zm0-5.99C22.96,0,0,22.96,0,51.27s22.96,51.27,51.27,51.27,51.27-22.96,51.27-51.27S79.59,0,51.27,0Z" style="fill:#706f70;"/><path d="m31.58,31.58c-5.04,5.04-8.16,12-8.16,19.7,0,7.69,3.12,14.65,8.16,19.69,5.04,5.04,12,8.16,19.7,8.16,7.69,0,14.65-3.12,19.69-8.16,5.04-5.04,8.16-12,8.16-19.69,0-7.69-3.12-14.65-8.16-19.7-5.04-5.04-12-8.16-19.69-8.16-7.69,0-14.65,3.12-19.7,8.16Zm-9.82,19.7c0-16.3,13.22-29.52,29.52-29.52,16.3,0,29.52,13.22,29.52,29.52,0,16.3-13.22,29.52-29.52,29.52-16.3,0-29.52-13.22-29.52-29.52Z" style="fill:#706f70;"/><path d="m21.77,51.28h29.52v-29.52h0c-16.3,0-29.52,13.22-29.52,29.52Z" style="fill:#0466ac;"/><path d="m80.79,51.26h-29.52v29.54h0c16.3,0,29.52-13.23,29.52-29.54Z" style="fill:#0466ac;"/><path d="m28.28,25.15l-4.5,5-1.69-1.54,4.5-5c.55-.61,1.38-.76,1.84-.33.47.43.4,1.26-.15,1.87Zm-9.64.32c3.03-3.76,4.25-4.78,4.25-4.78.8-.69,1.38-.75,1.86-.31.48.43.42,1.28-.13,1.89l-4.29,4.75-1.69-1.54Zm8.26-4.2h0c.29-1.09-.04-2.24-.87-2.98-1.2-1.1-2.99-1.13-4.9.77,0,0-3.52,3.53-5.9,6.98l8.56,7.81,6.45-7.23c1.4-1.55,1.46-3.75.17-4.92-.96-.87-2.35-1-3.52-.43Zm25.05-3.85l2.96-6.54.27,8.29c1.19.05,2.95.5,2.95.5l-.53-11.75c-2.23-.33-4.01-.41-4.01-.41l-2.85,7.09-2.79-7.04s-1.84.18-4.07.5l-.53,11.84s1.76-.51,2.95-.56l.25-8.42,2.97,6.49h2.44Zm33.52,6.56l-6.58,4.35,3.11-6.05c-.81-.96-2.03-1.96-2.03-1.96l-6.01,3.02,4.41-6.46c-.73-.61-1.58-1.13-2.39-1.74l-6.17,9.62s1.17.69,2.6,2.01l6.38-3.3-3.34,6.28c.75.79,1.42,1.76,2.12,2.62l9.72-6.01s-.6-.93-1.81-2.36Z" style="fill:#706f70;"/></g></g></svg>