<svg xmlns="http://www.w3.org/2000/svg" xmlns:xlink="http://www.w3.org/1999/xlink" width="128" height="128" viewBox="0 0 81.93 81.93"><defs><linearGradient id="Dégradé_sans_nom_87" x1="-1164.24" y1="170.47" x2="-1163.26" y2="169.65" gradientTransform="translate(72891.74 10686.9) scale(62.6 -62.6)" gradientUnits="userSpaceOnUse"><stop offset="0" stop-color="#fff"/><stop offset=".1" stop-color="#e7e8e6"/><stop offset=".1" stop-color="#cccfcf"/><stop offset=".2" stop-color="#b5babd"/><stop offset=".2" stop-color="#a4abae"/><stop offset=".3" stop-color="#9aa3a7"/><stop offset=".3" stop-color="#98a0a3"/><stop offset=".4" stop-color="#81898e"/><stop offset=".5" stop-color="#667075"/><stop offset=".6" stop-color="#535c64"/><stop offset=".7" stop-color="#485259"/><stop offset=".8" stop-color="#434d54"/><stop offset="1" stop-color="#485157"/></linearGradient><linearGradient id="Dégradé_sans_nom_85" x1="-1162.86" y1="170.06" x2="-1161.88" y2="169.24" gradientTransform="translate(68388.02 10016.2) scale(58.8 -58.8)" gradientUnits="userSpaceOnUse"><stop offset="0" stop-color="#0b1f2a"/><stop offset=".2" stop-color="#333f47"/><stop offset=".5" stop-color="#777f84"/><stop offset=".5" stop-color="#80878b"/><stop offset=".7" stop-color="#b3b8b8"/><stop offset=".8" stop-color="#d2d5d4"/><stop offset=".8" stop-color="#dddfdd"/><stop offset="1" stop-color="#fcfcfb"/></linearGradient><linearGradient id="Dégradé_sans_nom_83" x1="-1164" y1="169.6" x2="-1164.44" y2="170.81" gradientTransform="translate(74551.01 10934) scale(64 -64)" gradientUnits="userSpaceOnUse"><stop offset="0" stop-color="#e0e2e0"/><stop offset=".1" stop-color="#c2c5c3"/><stop offset=".3" stop-color="#9aa0a1"/><stop offset=".5" stop-color="#7d8486"/><stop offset=".7" stop-color="#687074" stop-opacity="0"/><stop offset=".8" stop-color="#5c656a" stop-opacity="0"/><stop offset="1" stop-color="#586166" stop-opacity="0"/></linearGradient><linearGradient id="Dégradé_sans_nom_83-2" x1="-1161.2" y1="169.75" x2="-1160.56" y2="168.65" gradientTransform="translate(64121.33 9380.8) scale(55.2 -55.2)" xlink:href="#Dégradé_sans_nom_83"/><linearGradient id="Dégradé_sans_nom_81" x1="-1130.04" y1="147.7" x2="-1130.13" y2="147.62" gradientTransform="translate(27629.86 2127.18) scale(24.4 -14.06)" gradientUnits="userSpaceOnUse"><stop offset="0" stop-color="#27353d"/><stop offset="1" stop-color="#08121c" stop-opacity="0"/></linearGradient><linearGradient id="Dégradé_sans_nom_79" x1="-865.47" y1="161.24" x2="-865.49" y2="161.46" gradientTransform="translate(3679.11 4407.1) scale(4.2 -27.1)" gradientUnits="userSpaceOnUse"><stop offset=".1" stop-color="#08131e"/><stop offset=".9" stop-color="#08131e" stop-opacity="0"/></linearGradient><linearGradient id="Dégradé_sans_nom_77" x1="-1130.13" y1="147.9" x2="-1130.35" y2="147.87" gradientTransform="translate(27842.1 2137.17) scale(24.6 -14.12)" gradientUnits="userSpaceOnUse"><stop offset=".2" stop-color="#08131e"/><stop offset=".9" stop-color="#08131e" stop-opacity="0"/></linearGradient><linearGradient id="Dégradé_sans_nom_75" x1="-1128.66" y1="146.88" x2="-1128.69" y2="146.93" gradientTransform="translate(26775.88 2065.5) scale(23.7 -13.71)" gradientUnits="userSpaceOnUse"><stop offset="0" stop-color="#08131e"/><stop offset=".1" stop-color="#08131e"/><stop offset="1" stop-color="#08131e" stop-opacity="0"/></linearGradient><linearGradient id="Dégradé_sans_nom_73" x1="-899.5" y1="162.21" x2="-899.53" y2="162.19" gradientTransform="translate(4271.45 4535.26) scale(4.7 -27.83)" gradientUnits="userSpaceOnUse"><stop offset=".3" stop-color="#08131e"/><stop offset=".3" stop-color="#08131e"/><stop offset=".8" stop-color="#08131e" stop-opacity="0"/></linearGradient><linearGradient id="Dégradé_sans_nom_71" x1="-899.5" y1="162.21" x2="-899.52" y2="162.2" gradientTransform="translate(4271.45 4535.26) scale(4.7 -27.83)" gradientUnits="userSpaceOnUse"><stop offset=".4" stop-color="#27353d"/><stop offset="1" stop-color="#3b474e" stop-opacity="0"/></linearGradient><linearGradient id="Dégradé_sans_nom_69" x1="-1125.58" y1="166.57" x2="-1125.09" y2="166.06" gradientTransform="translate(25108.41 6759.1) scale(22.3 -40.3)" gradientUnits="userSpaceOnUse"><stop offset="0" stop-color="#24303a" stop-opacity="0"/><stop offset="0" stop-color="#25323c" stop-opacity="0"/><stop offset=".1" stop-color="#27353d"/></linearGradient><linearGradient id="Dégradé_sans_nom_67" x1="306.08" y1="90.67" x2="306.08" y2="91.97" gradientTransform="translate(-234.57 477.79) scale(.9 -4.74)" gradientUnits="userSpaceOnUse"><stop offset=".3" stop-color="#a4aaae"/><stop offset="1" stop-color="#a4aaae" stop-opacity="0"/></linearGradient><linearGradient id="Dégradé_sans_nom_65" x1="-1142.17" y1="170.53" x2="-1142.17" y2="169.25" gradientTransform="translate(35810.93 10405.3) scale(31.3 -61)" gradientUnits="userSpaceOnUse"><stop offset="0" stop-color="#dddfdd"/><stop offset="0" stop-color="#c5c9c7"/><stop offset="0" stop-color="#9ea3a4"/><stop offset="0" stop-color="#81888b"/><stop offset="0" stop-color="#70797d"/><stop offset="0" stop-color="#6b7479"/><stop offset=".2" stop-color="#333f47"/><stop offset=".5" stop-color="#27353d"/><stop offset=".8" stop-color="#333f47"/><stop offset="1" stop-color="#434d54"/></linearGradient><linearGradient id="Dégradé_sans_nom_63" x1="-1134" y1="167.2" x2="-1134.27" y2="166.58" gradientTransform="translate(29993.02 6848.4) scale(26.39 -40.9)" gradientUnits="userSpaceOnUse"><stop offset=".7" stop-color="#27353d"/><stop offset=".7" stop-color="#2a373f"/><stop offset=".7" stop-color="#36424a"/><stop offset=".7" stop-color="#49545b"/><stop offset=".8" stop-color="#656e74" stop-opacity="0"/><stop offset=".8" stop-color="#868c91" stop-opacity="0"/><stop offset=".8" stop-color="#b0b5b8" stop-opacity="0"/><stop offset=".8" stop-color="#e0e2e2" stop-opacity="0"/><stop offset=".8" stop-color="#fff" stop-opacity="0"/></linearGradient></defs><g id="auto"><g id="auto-mercedes-benz"><path d="m81.03,40.96c0,22.15-17.92,40.07-40.07,40.07S.9,63.11.9,40.96,18.82.9,40.96.9s40.07,17.92,40.07,40.07ZM40.96,3.33C20.1,3.33,3.33,20.1,3.33,40.96s16.9,37.64,37.64,37.64,37.64-16.9,37.64-37.64S61.83,3.33,40.96,3.33Z" style="fill:url(#Dégradé_sans_nom_87);"/><path d="m40.96,3.33C20.1,3.33,3.33,20.1,3.33,40.96s16.9,37.64,37.64,37.64,37.64-16.9,37.64-37.64S61.83,3.33,40.96,3.33Zm0,72.84c-19.46,0-35.2-15.75-35.2-35.2S21.51,5.76,40.96,5.76s35.2,15.75,35.2,35.2-15.75,35.2-35.2,35.2Z" style="fill:url(#Dégradé_sans_nom_85);"/><path d="m40.96,81.03c22.15,0,40.07-17.92,40.07-40.07S63.11.9,40.96.9.9,18.82.9,40.96s17.92,40.07,40.07,40.07h0ZM40.96,0c22.53,0,40.96,18.43,40.96,40.96s-18.43,40.96-40.96,40.96S0,63.5,0,40.96,18.43,0,40.96,0h0Z" style="fill:url(#Dégradé_sans_nom_83); isolation:isolate; opacity:.4;"/><path d="m2.82,41.09C2.82,20.1,19.84,2.82,40.96,2.82h0c21.12,0,38.15,17.15,38.15,38.28h0c0,20.99-17.03,38.02-38.15,38.02h0c-21.12,0-38.15-17.03-38.15-38.02h0ZM14.72,14.72C7.94,21.51,3.71,30.85,3.71,41.09h0c0,10.24,4.22,19.59,10.88,26.24h0c6.78,6.66,16.13,10.88,26.37,10.88h0c10.24,0,19.59-4.1,26.24-10.88h0c6.78-6.66,10.88-16,10.88-26.24h0c0-10.24-4.22-19.59-10.88-26.37h0c-6.66-6.78-16-11.01-26.24-11.01h0c-10.24,0-19.59,4.22-26.24,11.01h0Z" style="fill:#fff;"/><path d="m40.96,76.3c-9.47,0-18.31-3.71-24.96-10.37-6.66-6.66-10.37-15.49-10.37-24.96s3.71-18.31,10.37-24.96c6.66-6.66,15.49-10.37,24.96-10.37s18.31,3.71,24.96,10.37c6.66,6.66,10.37,15.49,10.37,24.96s-3.71,18.31-10.37,24.96c-6.66,6.66-15.49,10.37-24.96,10.37h0Zm0-1.02c9.09,0,17.79-3.58,24.19-9.99,6.53-6.53,9.99-15.11,9.99-24.19s-3.58-17.79-9.99-24.19c-6.53-6.53-15.11-9.99-24.19-9.99s-17.79,3.58-24.19,9.99c-6.53,6.27-10.11,14.98-10.11,24.07s3.58,17.79,9.99,24.19c6.53,6.53,15.23,10.11,24.32,10.11h0Z" style="fill:url(#Dégradé_sans_nom_83-2); isolation:isolate; opacity:.4;"/><path d="m72.07,57.61c-.64-.51-25.35-20.1-25.35-20.1l-5.76-32.9c-.38.13-.9.51-1.15,1.02l-4.1,32-25.48,19.59s-.51.64-.77,1.02c-.13.26-.13.64-.13,1.02h0l31.49-12.93,31.49,12.93h0c.26-.64,0-1.28-.26-1.66Z" style="fill:#fff;"/><path d="m41.22,41.99l-.26,5.89,28.93,11.65c1.02.51,1.79.26,2.56-.26l-30.85-17.41c-.13-.13-.38,0-.38.13Z" style="fill:#566065;"/><path d="m41.22,41.99s1.66,2.94,3.58,4.99c2.69,2.94,6.27,4.99,6.27,4.99l18.82,7.55c1.02.51,1.79.26,2.56-.26l-30.85-17.41c-.13-.13-.38,0-.38.13Z" style="fill:url(#Dégradé_sans_nom_81);"/><path d="m72.33,58.12c0-.13-.13-.26-.26-.51l-26.37-19.33-3.58,2.3s.26.13.38,0c.38-.13,1.15-.26,1.92,0,.64.26,27.91,17.67,27.91,17.67v-.13Z" style="fill:rgba(163,169,173,.6);"/><path d="m71.43,56.97l-24.58-19.46h0l-1.15.77,26.37,19.46c-.13-.26-.38-.51-.64-.77Z" style="fill:#323e46;"/><path d="m41.6,40.07l-.13.13s0,.26.26.13c.13-.13,3.84-2.05,5.12-2.82l-4.48-30.72c-.13-1.15-.64-1.66-1.54-2.05l.51,35.59.26-.26Z" style="fill:#566065;"/><path d="m39.43,6.78v1.66l-2.82,28.29c0,.38.13.77.51,1.02l1.66,1.28,1.15-31.24.13-2.43c-.38.26-.51.77-.64,1.41Zm-1.54,32.77l-1.54-1.28-25.99,18.82s-.77.51-.9,1.02h0l.9-.51h0l27.27-17.15c.51-.26.64-.51.26-.9Z" style="fill:rgba(163,169,173,.6);"/><path d="m40.58,41.99c0-.13-.13-.26-.26-.13l-30.98,17.54c.77.51,1.54.64,2.56.26l28.93-11.65-.26-6.02Z" style="fill:#566065;"/><path d="m41.48,40.2l.13-.13-.13.13h0s0,.13.13.13h.13c.13-.13,3.84-2.05,5.12-2.82l-.51-3.71h0l-3.97-27.01c0-.51-.13-.9-.38-1.15,0,0,1.92,25.86,1.92,28.68,0,3.71-2.43,5.89-2.43,5.89Z" style="fill:url(#Dégradé_sans_nom_79);"/><path d="m40.58,41.99c0-.13-.13-.26-.26-.13l-30.98,17.54c.77.51,1.54.64,2.56.26l28.93-11.65-.26-6.02Z" style="fill:url(#Dégradé_sans_nom_77); fill-opacity:.8;"/><path d="m11.91,59.53l28.93-11.65-.26-5.63c-.51,1.54-1.41,3.2-3.84,4.48h0c-1.79,1.02-18.95,9.47-25.09,12.42-.38.26-.9.38-1.15.51.51.26.9.13,1.41-.13Z" style="fill:url(#Dégradé_sans_nom_75); isolation:isolate; opacity:.8;"/><path d="m41.6,40.07l-.13.13s0,.26.26.13c.13-.13,3.84-2.05,5.12-2.82l-4.48-30.72c-.13-1.15-.64-1.66-1.54-2.05l.51,35.59.26-.26Z" style="fill:url(#Dégradé_sans_nom_73);"/><path d="m41.6,40.07l-.13.13s0,.26.26.13c.13-.13,3.84-2.05,5.12-2.82l-4.48-30.72c-.13-1.15-.64-1.66-1.54-2.05l.51,35.59.26-.26Z" style="fill:url(#Dégradé_sans_nom_71);"/><path d="m6.53,56.84c-.9-2.05-6.02-12.03-.38-31.24h-2.18c-1.15,3.84-2.05,6.14-2.56,9.6,0,0-.26,1.28-.38,2.69-.13,1.41-.13,2.18-.13,3.07,0,7.68,1.92,12.16,1.92,12.16,2.05,6.4,5.63,12.16,10.5,16.51,4.22,3.71,10.75,6.53,16.13,7.55-.9-.13-16.26-6.66-22.91-20.35Z" style="fill:url(#Dégradé_sans_nom_69);"/><path d="m41.48,41.73h-1.15c.13,0,.26,0,.26.13l.26,5.89h.13l.26-5.89c0-.13.13-.26.26-.13h0Z" style="fill:url(#Dégradé_sans_nom_67);"/><path d="m53.77,2.94c13.44,5.12,26.12,19.2,26.12,37,0,21.51-17.15,39.04-38.92,39.04v2.05c21.76,0,40.07-17.92,40.07-40.07,0-17.67-11.27-32.52-27.27-38.02Z" style="fill:url(#Dégradé_sans_nom_65);"/><path d="m75.27,25.86C66.31,5.25,46.09,4.1,44.93,3.97h-.13c15.49,2.82,25.35,12.93,28.8,23.55v.13c1.54,4.1,2.3,8.45,2.43,13.19.13,4.48-.9,9.47-2.82,14.08-.13.64-.26,1.41-.38,1.41h2.05c6.14-11.52,3.46-23.17.38-30.47Z" style="fill:url(#Dégradé_sans_nom_63);"/><path d="m2.82,41.09C2.82,20.1,19.84,2.82,40.96,2.82h0c21.12,0,38.15,17.15,38.15,38.28h0c0,20.99-17.03,38.02-38.15,38.02h0c-21.12,0-38.15-17.03-38.15-38.02h0ZM14.72,14.72C7.94,21.51,3.71,30.85,3.71,41.09h0c0,10.24,4.22,19.59,10.88,26.24h0c6.78,6.66,16.13,10.88,26.37,10.88h0c10.24,0,19.59-4.1,26.24-10.88h0c6.78-6.66,10.88-16,10.88-26.24h0c0-10.24-4.22-19.59-10.88-26.37h0c-6.66-6.78-16-11.01-26.24-11.01h0c-10.24,0-19.59,4.22-26.24,11.01h0Z" style="fill:#fcfcfb;"/><path d="m10.11,57.35h0l26.12-18.82c1.41.77,3.71,1.79,3.97,1.79.26.13.26-.13.26-.13l-3.2-2.69c-.38-.26-.51-.64-.51-1.02l3.07-30.85c-.13.13-.13.38-.26.51-.13.26-.13.38-.13.64l-4.48,30.85-24.58,19.33c-.13.13-.26.26-.26.38Z" style="fill:#333f47;"/></g></g></svg>