<svg xmlns="http://www.w3.org/2000/svg" width="128" height="141" viewBox="0 0 114.22 126"><g id="auto"><g id="auto-peugeot"><path d="m57.11,0c18.36,0,37.41,1.57,56.75,4.91.29,7.76.62,19.75.07,29.93-1.23,22.69-6.22,40.3-15.71,55.42-9.46,15.08-24.1,28.04-41.1,35.74-17.01-7.7-31.65-20.67-41.11-35.74C6.52,75.13,1.53,57.52.3,34.84-.25,24.66.08,12.67.36,4.91,19.7,1.57,38.76,0,57.11,0Z" style="fill:#010101; fill-rule:evenodd;"/><path d="m57.11,5.22c-17.19,0-34.65,1.46-51.91,4.35-.38,10.93-.38,19.64,0,26.56,1.15,21.19,5.79,37.61,14.61,51.67,8.82,14.06,22.04,25.67,37.3,32.78,15.26-7.11,28.48-18.73,37.3-32.78,8.82-14.06,13.46-30.48,14.61-51.67.38-6.92.38-15.62,0-26.56-17.26-2.89-34.72-4.35-51.91-4.35Zm0-2.08c17.44,0,35.54,1.49,53.92,4.66.27,7.37.58,18.77.06,28.43-1.17,21.56-5.91,38.29-14.92,52.66-8.98,14.33-22.9,26.65-39.05,33.96-16.16-7.32-30.07-19.63-39.06-33.96-9.01-14.37-13.75-31.1-14.92-52.66-.2-3.72-.28-7.69-.28-11.59v-.67c0-6.01.18-11.8.35-16.17C21.57,4.63,39.67,3.14,57.11,3.14Z" style="fill:#fff; fill-rule:evenodd;"/><path d="m56.96,68.17s.34,2.02.44,2.6c.06.33.07.42-.01.75-.27,1.05-1.52,6.56-2.53,12.21l-.16.89c-.41,2.38-.76,4.74-.97,6.76-.12,1.15-.08,1.42.22,2.44.86,2.88,4.03,10.39,4.64,11.76.07.15.11.31.13.47l.23,1.77c-1.02-1.54-6.54-11.7-8.71-17.33-.26-.66-.31-.99-.02-2.21,1.51-6.47,5.59-17.46,6.73-20.12Z" style="fill:#fff; fill-rule:evenodd;"/><path d="m48.91,52.55s.42,1.38.83,2.87l.14.53c.26.97.49,1.94.57,2.54.08.59.07.74-.14,1.3-.5,1.34-1.43,3.5-2.42,5.71l-.43.95c-1.21,2.68-2.44,5.27-3.04,6.39-.29.55-.57.91-1.12,1.48-1.26,1.29-3.68,3.72-5.18,5.08-.54.5-.69.92-.8,1.56-.18,1.03-.36,2.79-.4,3.69-.04.8.09,1.17.53,1.96,2.64,4.71,11.45,15.56,13.96,17.84.18.17.31.28.7.53.37.25,1.57,1.03,1.57,1.03.05.03.09.08.12.13l.44.77s-.04-.02-.11-.06l-.19-.09c-.15-.08-.35-.18-.58-.29l-.56-.28c-.86-.43-1.88-.95-2.42-1.24-.22-.12-.43-.26-.62-.42-2.94-2.45-11.94-13-14.59-17.41-.66-1.1-.73-1.46-.64-2.5.17-1.94.42-4.38.65-5.45.14-.64.28-1.02.77-1.59,1.66-1.91,3.68-4.43,5.65-7.02l.69-.92c2.99-3.97,5.74-7.95,6.76-9.97.23-.46.25-.62.26-1.06.01-1.26-.39-3.72-.49-4.34-.02-.1-.02-.2-.01-.29l.11-1.43Z" style="fill:#fff; fill-rule:evenodd;"/><path d="m73.49,50.18l.76.33c.23.1.43.24.6.42,4.67,4.88,8.4,9.94,9.15,11.27.14.26.24.51.28.81.84,7.12.12,14.66-1.6,21.22-.15.59-.33.89-.9,1.32-1.83,1.38-4.56,3.58-7.28,5.82l-.86.71c-3.27,2.71-6.38,5.37-7.7,6.59-.33.31-.62.66-.86,1.04-.62,1.01-1.56,2.74-2.03,3.6l-.13.24c-.09.17-.15.27-.15.27-.62-1.34-1.96-4.63-2.42-5.95-.15-.43-.18-.66-.02-1.24.75-2.75,4.3-10.74,4.99-12.19v.59c0,.09-.01.17-.04.25-.31.95-2.22,7.25-2.61,9.98-.09.61-.08.77,0,1.37.17,1.28.93,3.61.93,3.61,0,0,.45-.94.87-1.58.21-.31.33-.46.67-.8,1.7-1.69,4.61-4.3,7.64-6.93l1.07-.93c2.33-2,4.65-3.95,6.49-5.44.48-.39.66-.65.76-1.38.53-3.62.68-10.11.36-14.84-.06-.89-.35-1.76-.85-2.5-1.15-1.7-2.53-3.32-4.62-5.39-.3-.3-.5-.68-.58-1.09-.61-3.25-1.97-9.2-1.97-9.2Z" style="fill:#fff; fill-rule:evenodd;"/><path d="m34.01,57.71c.29-.09.6-.1.89-.03,1.33.32,4.15,1.01,6.28,1.56.3.08.67.36.83.62l.46.77c.16.27.17.6.03.89-.39.75-.94,1.77-1.52,2.82l-.44.79c-.81,1.44-1.62,2.84-2.08,3.57-.3.48-.47.7-1.01.89-2.1.74-4.7,1.62-6.24,2.12-.32.1-.42.29-.36.65.11.64.47,2.81.6,3.44.05.23.24.42.58.35.91-.17,3.35-.77,3.35-.77,0,0-.72.66-1.15,1.06-.08.07-.17.13-.27.16-.66.22-2.28.68-2.79.79-.39.08-.64-.07-.75-.52,0,0-.69-2.94-.94-3.94-.04-.15-.08-.28-.13-.44-.19-.58-.64-1.72-.89-2.31-.03-.07-.04-.14-.04-.22,0-.68.13-2.2.13-2.2,0,0,1.49,1.4,2.21,1.9.16.11.26.14.46.09.99-.26,3.27-1.01,4.52-1.48.29-.11.54-.29.73-.52,1.29-1.56,2.91-4,3.85-5.83.13-.25.15-.54.07-.81l-.2-.67c-.06-.19-.26-.41-.45-.49-2.2-.84-3.94-1.46-5.98-2.16l.24-.08Z" style="fill:#fff; fill-rule:evenodd;"/><path d="m77.58,38.76c.48-.18,1.02-.17,1.49.03,3.69,1.55,9.9,5.21,13.35,7.78.33.25.47.42.55.82.81,3.69,1.12,9.4.61,14.21-.04.35-.11.55-.29.92-2.19,4.48-4.65,8.7-7.24,11.95v-.05c.04-.35.22-2.3.23-3.36,0-.12.06-.23.15-.3.48-.37,1.14-.91,1.52-1.23.18-.16.28-.28.38-.43,1.06-1.71,2.94-5.28,3.7-7.44.19-.53.26-1.08.21-1.64-.24-3-.71-7.15-1.41-9.86-.12-.46-.42-.85-.85-1.07-.6-.31-1.79-.85-4.49-1.94-.37-.15-.72-.36-1.03-.62-1.77-1.49-4.53-3.72-6.26-5.01-.5-.38-1.15-.51-1.76-.37-1.25.28-2.85.68-3.75.93-.31.08-.43.09-.74.05-.16-.02-.38-.04-.6-.06l-.34-.03c-.39-.03-.76-.06-.9-.07h-.06c2.93-1.38,5.74-2.57,7.5-3.22Z" style="fill:#fff; fill-rule:evenodd;"/><path d="m38.54,63c-.92,1.51-2.01,3.11-2.84,4.11-.11.13-.25.23-.42.29-.9.34-2.41.85-3.52,1.19l6.77-5.59Z" style="fill:#fff; fill-rule:evenodd;"/><path d="m26.44,61.02l-.54,3.73-1.84-2.16c.33-.73,1.31-1.41,2.38-1.57Z" style="fill:#fff; fill-rule:evenodd;"/><path d="m36.34,39.88l-.5.62s-.06.05-.08.08c-.44.33-2.3,1.75-2.8,2.15-.14.11-.2.21-.23.39-.11.63-.3,1.83-.36,2.49-.02.19-.1.29-.3.37-.86.35-1.88.72-2.71,1.05-.18.07-.23.1-.33.18-.08.06-1.18,1.05-1.18,1.05,0,0,2.39-.59,3.26-.79.21-.05.3-.03.49.06.18.08.48.2.64.26.24.09.37.09.64.03.99-.22,2.65-.61,3.53-.85.46-.12.71-.24,1.1-.52.42-.29,1.49-1.1,1.49-1.1,0,0-.02.14-.03.22-.01.07-.04.11-.08.16-.22.26-.6.69-.79.89-.43.45-.69.61-1.24.84-2.51,1.05-6.8,2.67-10.01,3.79-.21.07-.3.13-.46.29-.17.17-.4.42-.4.42,0,0,2.62.19,3.42.28.26.03.45.11.64.29.66.57,2.84,2.81,3.49,3.59,0,0-6.19,1.03-9.06,1.75-.35.09-.53.31-.61.6-.24.84-.8,3.52-.8,3.52,0,0-.2-.06-.48-.22-.19-.11-.29-.2-.5-.42-.68-.72-1.79-2.09-2.33-2.89-.16-.24-.22-.53-.03-.78.58-.72,1.75-2.03,2.4-2.7.07-.07.16-.2.25-.38.22-.43.5-1.52.6-1.92l.03-.13v-.02s0,0-.01.01l-.12.07c-.16.1-.42.26-.53.33-.17.11-.21.15-.28.3-.1.22-.29.57-.43.81-.05.08-.17.2-.23.25-.82.63-1.73,1.31-2.38,1.76-.04.03-.1.02-.14-.02-.08-.08-.43-.48-.49-.57-.05-.08-.08-.15-.08-.24,0-.16.02-.45.03-.67.02-.25.09-.37.4-.69.35-.36.72-.74,1.12-1.12.97-.82,3.42-2.81,7.8-5.94.08-.06.16-.13.22-.21.46-.62,1.77-2.32,2.09-2.72.05-.06.1-.11.15-.16.52-.41.77-.58,1.29-.91,1.22-.77,3.58-2.17,4.9-2.94Z" style="fill:#fff; fill-rule:evenodd;"/><path d="m63,38.5c.18-.03.37,0,.54.07l1.28.61c.13.06.22.17.25.31.17.73.39,1.7.53,2.53.06.34,0,.69-.18.99-.53.92-1.62,2.58-2.22,3.47-.14.2-.15.44-.11.68.28,1.53,1.42,6.85,1.42,6.85l-.72-.66c-.14-.13-.24-.27-.3-.46-.51-1.51-1.48-4.66-1.92-6.19-.07-.25-.02-.52.15-.72.75-.92,1.85-2.38,2.49-3.31.18-.26.24-.55.13-.77-.15-.3-.4-.76-.63-1.18-.06-.12-.17-.2-.3-.24l-.87-.28c-.15-.05-.31-.05-.46,0-1.89.69-4.43,1.68-5.99,2.32-.23.09-.32.1-.6.06-.45-.07-1.76-.3-2.4-.42-.12-.02-.17-.15-.11-.26l.76-1.32c.1-.18.27-.31.48-.35,2.45-.56,5.7-1.2,8.78-1.75Z" style="fill:#fff; fill-rule:evenodd;"/><path d="m35.86,44.58c.12,0,.23.06.27.16.15.36.11.76-.04,1.1-.06.14-.24.27-.38.31l-1.22.27c-.07.02-.14-.04-.14-.12l.11-1.44c0-.1.08-.17.18-.18l1.21-.1Z" style="fill:#fff; fill-rule:evenodd;"/><path d="m49.79,35.33c.14,0,.23.15.16.27l-2.98,5.15c-.17.3-.44.53-.77.63l-5.6,1.75c-.65.2-1.2.3-1.87.36-1.24.09-4.93.21-4.93.21l.08-.17c.04-.08.11-.15.19-.18l1.74-.74c.13-.06.24-.14.33-.25l2.69-3.32c.14-.18.33-.35.53-.45,1.78-.94,4.94-2.35,7.16-3.09.21-.07.49-.11.71-.12l2.55-.04Z" style="fill:#fff; fill-rule:evenodd;"/><path d="m46.8,29.35c6.17-.54,14.53-.69,22.51-.09.45.03.9.14,1.31.32,2.62,1.1,7.26,3.51,12.41,6.47.23.13.44.28.64.46,1.37,1.21,4.83,4.76,4.83,4.76l-1.08-.21c-.15-.03-.29-.09-.42-.18-2.18-1.47-5.37-3.38-8.05-4.73-.32-.16-.66-.26-1.01-.3-1.3-.14-3.06-.26-4.21-.31-.57-.02-.95-.12-1.51-.4-1.06-.54-3.63-1.71-4.91-2.2-.55-.21-.83-.26-1.36-.25-2.2.03-7.21.19-9.76.35-.09,0-.17,0-.26-.01l-1.22-.19c3.46-.6,12-1.36,15.54-1.55l-1.44-.48c-.28-.09-.57-.14-.86-.15-.77-.02-2.47-.05-4.69-.06h-.76c-3.36,0-7.68.09-11.66.39-.35.03-.69.11-1.01.25-1.61.71-5.53,2.84-9.47,5.03l-.87.49c-1.02.57-2.02,1.13-2.98,1.67,0,0,.49-.63.59-.76.08-.11.11-.13.22-.2.16-.1.7-.46,1.24-.82l.4-.27c.33-.22.62-.41.78-.53.08-.06.13-.1.23-.17,1.18-.89,3.05-2.47,4.17-3.45.25-.22.47-.48.64-.76.36-.58.75-1.22,1-1.57.21-.3.56-.52,1-.56Z" style="fill:#fff; fill-rule:evenodd;"/><path d="m20.93,16.31h-.04c-2.24.24-4.48.49-6.72.76v2.78c2.24-.27,4.48-.53,6.72-.76.34-.04.69-.35.69-.68v-1.53c0-.33-.32-.59-.65-.58Zm1.95.81v.86c0,1.58-.85,2.22-2.38,2.38-2.11.22-4.22.46-6.33.72v2.34c-.44.05-.88.11-1.33.17v-7.56c2.55-.32,5.1-.62,7.65-.88,1.53-.16,2.38.44,2.38,1.98Z" style="fill:#fff; fill-rule:evenodd;"/><path d="m91.3,14.89c3.36.33,6.72.71,10.08,1.13v1.22c-1.45-.18-2.9-.36-4.36-.52v6.34c-.44-.05-.88-.1-1.33-.15v-6.34c-1.46-.16-2.93-.31-4.39-.46v-1.22Z" style="fill:#fff; fill-rule:evenodd;"/><path d="m35.43,13.89v1.22c-2.77.17-5.53.38-8.29.61v1.86c2.46-.21,4.92-.39,7.38-.55v1.22c-2.46.16-4.92.34-7.38.55v2.04c2.76-.24,5.53-.44,8.29-.61v1.22c-3.2.2-6.4.44-9.59.72v-7.56c3.2-.28,6.39-.52,9.59-.72Z" style="fill:#fff; fill-rule:evenodd;"/><path d="m79.75,15.86v3.74c0,.35.3.71.69.74,2.15.14,4.31.31,6.46.49.34.03.69-.29.69-.63v-3.74c0-.4-.34-.72-.69-.75-2.15-.18-4.3-.35-6.46-.49-.39-.03-.69.25-.69.65Zm1.43-1.82c1.66.11,3.32.24,4.98.38,1.64.13,2.73.6,2.73,2.33v3.38c0,1.7-.94,2-2.73,1.86-1.66-.14-3.32-.26-4.98-.38-1.81-.12-2.73-.47-2.73-2.27v-3.37c0-1.69.84-2.04,2.73-1.92Z" style="fill:#fff; fill-rule:evenodd;"/><path d="m65.59,13.33c3.2.08,6.41.2,9.61.36v1.22c-2.77-.14-5.54-.25-8.31-.33v1.86c2.46.07,4.93.16,7.39.28v1.22c-2.46-.12-4.92-.21-7.39-.28v2.04c2.77.08,5.54.19,8.31.33v1.22c-3.2-.16-6.4-.28-9.61-.36v-7.56Z" style="fill:#fff; fill-rule:evenodd;"/><path d="m48.92,13.32v5.47c0,1.73-.91,2.11-2.73,2.17-1.59.05-3.18.11-4.77.18-1.7.08-2.73-.25-2.73-1.96v-5.47l1.3-.07v5.7c0,.35.3.63.69.61,2.09-.1,4.17-.18,6.25-.24.4-.01.66-.31.66-.66v-5.7c.44-.01.89-.02,1.33-.03Z" style="fill:#fff; fill-rule:evenodd;"/><path d="m54.66,13.24c2.39-.02,4.78,0,7.16.02v1.22c-2.55-.03-5.1-.04-7.66-.02-.35,0-.69.3-.69.65v3.79c0,.35.35.69.69.69,2.29-.02,4.58-.02,6.87,0v-2.04c-1.33-.01-2.66-.02-3.98-.02v-1.22c1.76,0,3.52.01,5.28.04v4.48c-2.48-.04-4.95-.05-7.42-.03-1.81.01-2.73-.3-2.73-2.06v-3.29c0-1.64.82-2.19,2.49-2.2Z" style="fill:#fff; fill-rule:evenodd;"/></g></g></svg>