<svg xmlns="http://www.w3.org/2000/svg" width="128" height="44.75" viewBox="0 0 151.22 52.87"><g id="auto"><path id="auto-audi" d="m124.79,46.82c-4.49,0-8.7-1.5-12.07-3.96,3.7-4.67,5.72-10.46,5.72-16.42.01-5.96-2-11.76-5.72-16.42,3.37-2.46,7.58-3.96,12.07-3.96,11.26,0,20.38,9.12,20.38,20.38s-9.12,20.38-20.38,20.38Zm-16.39-8.27c-2.6-3.5-4-7.75-3.99-12.11-.01-4.36,1.39-8.61,3.99-12.11,2.6,3.5,4,7.75,3.99,12.11,0,4.36-1.39,8.61-3.99,12.11Zm-4.33,4.31c-3.38,2.49-7.56,3.95-12.08,3.95s-8.67-1.46-12.05-3.95c3.7-4.67,5.72-10.46,5.72-16.42.01-5.96-2-11.76-5.72-16.42,3.38-2.49,7.53-3.95,12.05-3.95s8.7,1.46,12.08,3.95c-3.71,4.67-5.73,10.46-5.72,16.42,0,5.96,2.02,11.75,5.72,16.42Zm-28.46-4.31c-2.6-3.5-4-7.75-3.99-12.11-.01-4.36,1.39-8.61,3.99-12.11,2.6,3.5,4,7.75,3.99,12.11,0,4.36-1.39,8.61-3.99,12.11Zm-4.32,4.31c-3.5,2.58-7.73,3.96-12.08,3.95-4.34,0-8.56-1.38-12.05-3.95,3.7-4.67,5.72-10.46,5.72-16.42.01-5.96-2-11.76-5.72-16.42,3.49-2.58,7.72-3.96,12.05-3.95,4.52,0,8.7,1.46,12.08,3.95-3.71,4.67-5.73,10.46-5.72,16.42,0,5.96,2.02,11.75,5.72,16.42Zm-28.46-4.31c-2.6-3.5-4-7.75-3.99-12.11-.01-4.36,1.39-8.61,3.99-12.11,2.6,3.5,4,7.75,3.99,12.11,0,4.36-1.39,8.61-3.99,12.11Zm-4.33,4.31c-3.37,2.46-7.58,3.96-12.07,3.96-11.27,0-20.38-9.11-20.38-20.38S15.17,6.06,26.44,6.06c4.49,0,8.69,1.5,12.07,3.96-3.71,4.67-5.73,10.46-5.72,16.42,0,5.96,2.02,11.75,5.72,16.42ZM124.79,0c-5.95,0-11.73,2-16.39,5.7C103.73,2,97.95,0,92,0c-5.95,0-11.73,2-16.39,5.7C70.95,2,65.17-.01,59.22,0c-5.95,0-11.73,2-16.39,5.7C38.17,2,32.39,0,26.44,0,11.83,0,0,11.83,0,26.44s11.83,26.44,26.44,26.44c5.95,0,11.73-2,16.39-5.7,4.66,3.7,10.44,5.7,16.39,5.7,5.95,0,11.73-2,16.39-5.7,4.66,3.7,10.44,5.7,16.39,5.7,5.95,0,11.73-2,16.39-5.7,4.66,3.7,10.44,5.71,16.39,5.7,14.6,0,26.44-11.83,26.44-26.44S139.39,0,124.79,0Z"/></g></svg>